# xmcd CD database file
#
# Track frame offsets:
#	150
#	17947
#	34012
#	56420
#	75930
#	93715
#	112440
#	133325
#	143482
#	165432
#	185722
#
# Disc length: 2824 seconds
#
# Revision: 7
# Processed by: cddbd v1.5PL3 Copyright (c) Steve Scherf et al.
# Submitted via: CDex 1.51
#
DISCID=950b060b
DTITLE=久保田利伸 - GROOVIN'
DYEAR=1989
DGENRE=JPop
TTITLE0=PSYCHIC BEAT
TTITLE1=北風と太陽
TTITLE2=PLACE
TTITLE3=RANDY CANDY
TTITLE4=LADY SUICIDE
TTITLE5=一途な夜、無傷な朝
TTITLE6=ダイヤモンドの犬たち
TTITLE7=薄情LOVE MACHINE
TTITLE8=永遠の翼
TTITLE9=VISIONS
TTITLE10=八番目の虹の色
EXTD=YEAR: 1989
EXTT0=
EXTT1=
EXTT2=
EXTT3=
EXTT4=
EXTT5=
EXTT6=
EXTT7=
EXTT8=
EXTT9=
EXTT10=
PLAYORDER=
